<svg xmlns="http://www.w3.org/2000/svg" xmlns:xlink="http://www.w3.org/1999/xlink" width="289.469" height="77" viewBox="0 0 289.469 77">
  <defs>
    <clipPath id="clip-path">
      <rect id="Retângulo_193" data-name="Retângulo 193" width="76.213" height="66.94" fill="#151b1e"/>
    </clipPath>
  </defs>
  <g id="Grupo_37083" data-name="Grupo 37083" transform="translate(-282 -63)">
    <g id="Grupo_1375" data-name="Grupo 1375" transform="translate(282 68)">
      <path id="Caminho_401" data-name="Caminho 401" d="M0,1V49.513H24.5v-9.7H9.7V29.443H22.859v-9.7H9.7V10.706H24.5V1Z" transform="translate(0 -0.641)" fill="#151b1e"/>
      <rect id="Retângulo_190" data-name="Retângulo 190" width="9.701" height="48.508" transform="translate(66.511 0.364)" fill="#151b1e"/>
      <g id="Grupo_1374" data-name="Grupo 1374">
        <g id="Grupo_1373" data-name="Grupo 1373" clip-path="url(#clip-path)">
          <path id="Caminho_402" data-name="Caminho 402" d="M111.634,41.908a8.888,8.888,0,0,0,.084-1.161V8.732A8.7,8.7,0,0,0,102.988,0H92.316a8.7,8.7,0,0,0-8.731,8.732V40.747a8.694,8.694,0,0,0,8.691,8.73v0h22.695v-7.57Zm-17.5-1.464c-.606,0-.849-.242-.849-.849V9.884c0-.607.243-.849.849-.849h6.973c.607,0,.91.242.91.849V39.594c0,.607-.3.849-.91.849Z" transform="translate(-53.308)" fill="#151b1e"/>
          <rect id="Retângulo_191" data-name="Retângulo 191" width="1.653" height="8.264" transform="translate(0 58.573)" fill="#151b1e"/>
          <path id="Caminho_403" data-name="Caminho 403" d="M11.769,168.314h.1L11.8,161.7h1.652v8.264H10.7l-.992-6.611H9.62l.072,6.611H8.04V161.7H10.8Z" transform="translate(-5.128 -103.13)" fill="#151b1e"/>
          <path id="Caminho_404" data-name="Caminho 404" d="M27.734,168.314c.021.155.072.238.155.238h.527c.083,0,.134-.082.155-.238l.847-6.611H31.07l-1.3,8.016a.5.5,0,0,1-.444.351H26.959a.469.469,0,0,1-.444-.351L25.2,161.7H26.9Z" transform="translate(-16.074 -103.13)" fill="#151b1e"/>
          <path id="Caminho_405" data-name="Caminho 405" d="M47.795,163.356H45.274V164.9h2.241v1.653H45.274v1.766h2.521v1.653H43.621V161.7h4.173Z" transform="translate(-27.82 -103.13)" fill="#151b1e"/>
          <path id="Caminho_406" data-name="Caminho 406" d="M58.759,168.277c0,.1.041.145.145.145h1.063c.1,0,.155-.042.155-.145v-.6c0-1.033-.785-1.446-1.642-1.911a2.375,2.375,0,0,1-1.3-2.179v-.568a1.481,1.481,0,0,1,1.487-1.488H60.35c.826,0,1.487.878,1.487,2.025H60.185c0-.361-.042-.485-.207-.485h-.992c-.1,0-.155.041-.155.144v.372c0,.547.671.868,1.415,1.25a3.106,3.106,0,0,1,1.529,2.841v.8a1.481,1.481,0,0,1-1.487,1.487H58.593a1.481,1.481,0,0,1-1.487-1.487v-1.529h1.653Z" transform="translate(-36.421 -103.021)" fill="#151b1e"/>
          <path id="Caminho_407" data-name="Caminho 407" d="M71.533,161.7h5v1.653H74.869v6.611H73.217v-6.611H71.533Z" transform="translate(-45.622 -103.13)" fill="#151b1e"/>
          <rect id="Retângulo_192" data-name="Retângulo 192" width="1.652" height="8.264" transform="translate(31.653 58.573)" fill="#151b1e"/>
          <path id="Caminho_408" data-name="Caminho 408" d="M98.967,167.106l.578-5.4h2.861l.31,8.264h-1.652l-.207-6.611h-.092L99.7,169.863H98.224l-1.064-6.507h-.093l-.217,6.611H95.2l.32-8.264h2.748Z" transform="translate(-60.714 -103.13)" fill="#151b1e"/>
          <path id="Caminho_409" data-name="Caminho 409" d="M123.262,163.356h-2.52V164.9h2.241v1.653h-2.241v1.766h2.52v1.653h-4.173V161.7h4.173Z" transform="translate(-75.952 -103.13)" fill="#151b1e"/>
          <path id="Caminho_410" data-name="Caminho 410" d="M136.874,168.314h.1L136.9,161.7h1.653v8.264H135.81l-.992-6.611h-.093l.072,6.611h-1.653V161.7H135.9Z" transform="translate(-84.916 -103.13)" fill="#151b1e"/>
          <path id="Caminho_411" data-name="Caminho 411" d="M150.023,161.7h5v1.653h-1.663v6.611h-1.652v-6.611h-1.684Z" transform="translate(-95.68 -103.13)" fill="#151b1e"/>
          <path id="Caminho_412" data-name="Caminho 412" d="M166.82,161.533h1.818a1.481,1.481,0,0,1,1.487,1.488v5.454a1.481,1.481,0,0,1-1.487,1.487H166.82a1.481,1.481,0,0,1-1.488-1.487v-5.454a1.482,1.482,0,0,1,1.488-1.488m.31,6.89h1.188c.1,0,.155-.042.155-.145v-5.062c0-.1-.052-.144-.155-.144H167.13c-.1,0-.145.041-.145.144v5.062c0,.1.041.145.145.145" transform="translate(-105.444 -103.021)" fill="#151b1e"/>
          <path id="Caminho_413" data-name="Caminho 413" d="M182.7,168.277c0,.1.041.145.145.145H183.9c.1,0,.155-.042.155-.145v-.6c0-1.033-.785-1.446-1.642-1.911a2.375,2.375,0,0,1-1.3-2.179v-.568a1.481,1.481,0,0,1,1.488-1.488h1.684c.826,0,1.488.878,1.488,2.025h-1.653c0-.361-.041-.485-.207-.485h-.992c-.1,0-.155.041-.155.144v.372c0,.547.672.868,1.415,1.25a3.106,3.106,0,0,1,1.529,2.841v.8a1.481,1.481,0,0,1-1.487,1.487H182.53a1.481,1.481,0,0,1-1.487-1.487v-1.529H182.7Z" transform="translate(-115.464 -103.021)" fill="#151b1e"/>
        </g>
      </g>
    </g>
    <g id="Grupo_1352" data-name="Grupo 1352" transform="translate(-22.262 10)">
      <g id="btg" transform="translate(421.5 58)">
        <path id="Caminho_2665" data-name="Caminho 2665" d="M140.3,474.763c-6.512,0-9.5,2.736-9.5,9v.96c0,5.945,2.6,8.828,8.719,8.828a8.509,8.509,0,0,0,5.3-1.46v.714c0,3.343-1.458,4.448-4.876,4.448H137.9a2.336,2.336,0,0,0-2.405,1.383h0a32.129,32.129,0,1,1,1.9-30.873h1.478a33.473,33.473,0,1,0-3.43,33.33h4.788c6.3,0,9.537-2.383,9.537-8.47v-9.182c0-6.05-3.094-8.684-9.468-8.684m4.557,10.572c0,3.346-1.174,4.376-4.557,4.376-3.808,0-4.555-1.316-4.555-5.194v-.607c0-3.843.677-5.224,4.555-5.224,3.811,0,4.557,1.353,4.557,5.269Zm-50.5-17.3v17.475c0,6.468,2.985,9.184,9.5,9.184,6.764,0,9.754-2.634,9.754-9.149v-1.672c0-6.122-2.776-9.112-8.828-9.112a9.116,9.116,0,0,0-5.445,1.492v-9Zm9.681,10.642c3.418,0,4.627,1.353,4.627,5.373v1.492c0,3.915-1.209,5.269-4.7,5.269s-4.7-1.351-4.7-5.3v-2.027c0-3.6,1.209-4.806,4.769-4.806m24.311.677.818-3.98h-7.055v-5.453l-4.948.746v16.266c0,5.624,2.206,7.3,8.221,7.3h2.634l.818-3.945h-3.1c-2.736,0-3.629-.677-3.629-3.667v-7.266Z" transform="translate(-74.86 -448)"/>
        <path id="Caminho_2666" data-name="Caminho 2666" d="M409.674,543.375c-4.868,0-7.134,2.405-7.134,7.567v14.044h1.535v-7.214a7.031,7.031,0,0,0,5.686,2.289c4.846,0,7.007-2.333,7.007-7.567v-1.6c0-5.2-2.187-7.525-7.094-7.525m5.515,9.122c0,4.43-1.47,6.077-5.428,6.077-3.744,0-5.642-1.828-5.642-5.43v-2.2c0-4.316,1.609-6.075,5.555-6.075s5.515,1.692,5.515,6.032Zm66.2-8.863h-4.164l-.343,1.492h4.507c4.122,0,5.515,1.1,5.515,4.348v1.572c-1.022-1.022-2.831-1.542-5.385-1.542-4.077,0-6.057,1.741-6.057,5.281v.249c0,3.331,1.95,5.02,5.8,5.02H482.3c4.077,0,6.144-1.689,6.144-5.02v-5.557c0-4.149-2.042-5.841-7.05-5.841m5.515,11.622c0,2.383-1.306,3.313-4.652,3.313h-.647c-3.234,0-4.609-1.057-4.609-3.53v-.249c0-2.684,1.313-3.831,4.393-3.831h.249c3.684,0,5.256,1.107,5.256,3.7Zm4.706,4.8h1.535v-22.6h-1.535Zm-34.6-14.933.343-1.493H450.49v-4.266l-1.567.281v14.612c0,4.162,1.56,5.721,5.756,5.721h2.266l.289-1.492h-2.567c-3.162,0-4.177-.995-4.177-4.134v-9.229Zm14.219,8.458c0,3.848-1.2,5.082-4.953,5.082-3.639,0-4.868-1.281-4.868-5.082v-9.95h-1.577v9.95c0,4.726,1.806,6.575,6.445,6.575s6.487-1.9,6.487-6.575v-9.95h-1.535Zm-46.1-9.95H420.97l-.343,1.493h4.5c4.092,0,5.473,1.1,5.473,4.348v1.572c-1.022-1.022-2.831-1.542-5.386-1.542-4.075,0-6.057,1.741-6.057,5.281v.249c0,3.331,1.965,5.02,5.841,5.02h1.035c4.047,0,6.1-1.689,6.1-5.02v-5.56c0-4.149-2.03-5.841-7.007-5.841m5.473,11.627c0,2.415-1.244,3.313-4.607,3.313h-.649c-3.259,0-4.649-1.057-4.649-3.53V554.8c0-2.684,1.311-3.831,4.391-3.831h.249c3.684,0,5.256,1.107,5.256,3.7Zm5.9-2.764v-1.381c0-4.423,1.512-5.99,5.774-5.99h3.6l.343-1.493h-3.943c-5.085,0-7.351,2.308-7.351,7.482V552.5c0,5.174,2.266,7.483,7.351,7.483h3.644l.346-1.493h-3.98c-4.154,0-5.774-1.679-5.774-5.99" transform="translate(-321.029 -515.207)"/>
        <path id="Caminho_2667" data-name="Caminho 2667" d="M406.651,473.94l-3.731,9.644h.813l1.152-3.087h4.321l1.164,3.087h.853l-3.731-9.644Zm-1.517,5.838,1.9-5,1.9,5Z" transform="translate(-321.314 -467.487)"/>
        <path id="Caminho_2668" data-name="Caminho 2668" d="M442.421,473.94l-3.731,9.644h.813l1.152-3.087h4.321l1.164,3.087h.836l-3.731-9.644Zm-1.517,5.838,1.9-5,1.9,5Z" transform="translate(-348.186 -467.487)"/>
        <rect id="Retângulo_3553" data-name="Retângulo 3553" width="0.798" height="9.642" transform="translate(100.195 6.453)"/>
        <path id="Caminho_2669" data-name="Caminho 2669" d="M503.163,476.293a2.042,2.042,0,0,1,.48-1.007,1.96,1.96,0,0,1,1-.542,6.768,6.768,0,0,1,1.639-.162h.908c.3,0,.642,0,1.03.027l.162-.734-.662-.02h-1.423a7.625,7.625,0,0,0-1.943.209,2.736,2.736,0,0,0-1.244.684,2.674,2.674,0,0,0-.677,1.244,7.407,7.407,0,0,0-.2,1.888v1.639a7.416,7.416,0,0,0,.2,1.891,2.763,2.763,0,0,0,.669,1.244,2.642,2.642,0,0,0,1.244.689,7.513,7.513,0,0,0,1.943.211h1.01l.915-.02.162-.731c-.326,0-.659.015-.995.02s-.7,0-1.085,0a6.891,6.891,0,0,1-1.57-.149,1.881,1.881,0,0,1-1.517-1.537,7.32,7.32,0,0,1-.149-1.619V477.87A7.982,7.982,0,0,1,503.163,476.293Z" transform="translate(-395.915 -467.422)"/>
        <path id="Caminho_2670" data-name="Caminho 2670" d="M537.321,484.529a2.121,2.121,0,0,0-.955-.522,6.159,6.159,0,0,0-2.761,0,2.092,2.092,0,0,0-.955.527,2.239,2.239,0,0,0-.55.983,5.582,5.582,0,0,0-.174,1.517v1.03a5.562,5.562,0,0,0,.174,1.515,2.224,2.224,0,0,0,.55.983,2.05,2.05,0,0,0,.955.527,6.159,6.159,0,0,0,2.761,0,2.062,2.062,0,0,0,.955-.527,2.238,2.238,0,0,0,.55-.983,5.554,5.554,0,0,0,.177-1.515v-1.03a5.655,5.655,0,0,0-.177-1.525A2.2,2.2,0,0,0,537.321,484.529Zm-.075,3.535a5.224,5.224,0,0,1-.122,1.244,1.607,1.607,0,0,1-.393.759,1.381,1.381,0,0,1-.7.378,4.5,4.5,0,0,1-1.05.1,4.343,4.343,0,0,1-1.05-.107,1.448,1.448,0,0,1-.7-.386,1.642,1.642,0,0,1-.393-.759,5.139,5.139,0,0,1-.122-1.244v-1.03a5.214,5.214,0,0,1,.122-1.244,1.641,1.641,0,0,1,.393-.759,1.4,1.4,0,0,1,.694-.386,4.637,4.637,0,0,1,1.05-.1,4.348,4.348,0,0,1,1.042.109,1.42,1.42,0,0,1,.7.386,1.614,1.614,0,0,1,.393.764,5.164,5.164,0,0,1,.122,1.244Z" transform="translate(-418.228 -474.932)"/>
        <path id="Caminho_2671" data-name="Caminho 2671" d="M568.508,484.5a2.035,2.035,0,0,0-.878-.5,5.15,5.15,0,0,0-1.443-.169,4.933,4.933,0,0,0-1.443.177,2.1,2.1,0,0,0-.888.5,1.687,1.687,0,0,0-.445.8,4.194,4.194,0,0,0-.122,1.055v4.647h.784v-4.557a5.013,5.013,0,0,1,.062-.818,1.191,1.191,0,0,1,.276-.6,1.365,1.365,0,0,1,.637-.371,3.98,3.98,0,0,1,1.139-.129,4.124,4.124,0,0,1,1.122.122,1.349,1.349,0,0,1,.639.366,1.194,1.194,0,0,1,.276.6,5.134,5.134,0,0,1,.062.833v4.565h.784v-4.654a4.272,4.272,0,0,0-.122-1.07A1.7,1.7,0,0,0,568.508,484.5Z" transform="translate(-441.791 -474.92)"/>
        <path id="Caminho_2672" data-name="Caminho 2672" d="M595.153,477.05l-.786.149v6.366a4.729,4.729,0,0,0,.122,1.172,1.472,1.472,0,0,0,.408.716,1.556,1.556,0,0,0,.746.366,5.581,5.581,0,0,0,1.157.1h.9l.147-.692H596.8a3.73,3.73,0,0,1-.831-.075,1,1,0,0,1-.5-.264,1.025,1.025,0,0,1-.249-.515,4.2,4.2,0,0,1-.067-.826v-3.913h2.709l.149-.679h-2.861Z" transform="translate(-465.137 -469.824)"/>
        <path id="Caminho_2673" data-name="Caminho 2673" d="M617.091,484.6a4.727,4.727,0,0,0-1.072.107,1.741,1.741,0,0,0-.771.386,1.723,1.723,0,0,0-.468.746,3.749,3.749,0,0,0-.154,1.164v4.592h.784v-4.5a3.877,3.877,0,0,1,.082-.873,1.182,1.182,0,0,1,.271-.547,1.05,1.05,0,0,1,.522-.291,3.306,3.306,0,0,1,.846-.09h.746c.249,0,.443.012.56.02l.149-.7c-.152,0-.366-.012-.637-.012Z" transform="translate(-480.357 -475.488)"/>
        <path id="Caminho_2674" data-name="Caminho 2674" d="M637.62,485.152a2.287,2.287,0,0,0-.915-.408,6.367,6.367,0,0,0-1.376-.127h-1.015c-.343,0-.642.012-.893.02l-.149.707c.3-.02.632-.03,1-.035h1.055a5.56,5.56,0,0,1,1.1.09,1.519,1.519,0,0,1,.677.284,1.017,1.017,0,0,1,.353.522,3.075,3.075,0,0,1,.095.821v.811a1.71,1.71,0,0,0-.813-.5,5.094,5.094,0,0,0-1.492-.177,3.069,3.069,0,0,0-1.99.517,2.06,2.06,0,0,0-.617,1.652v.189a1.907,1.907,0,0,0,.612,1.584,3.275,3.275,0,0,0,2,.5h2.2a1.02,1.02,0,0,0,.669-.157.824.824,0,0,0,.172-.614V486.95a3.1,3.1,0,0,0-.164-1.077A1.582,1.582,0,0,0,637.62,485.152Zm-.082,5.761h-2.3a4.311,4.311,0,0,1-.9-.08,1.333,1.333,0,0,1-.567-.249.932.932,0,0,1-.3-.433,1.916,1.916,0,0,1-.09-.624v-.174a1.417,1.417,0,0,1,.421-1.172,2.32,2.32,0,0,1,1.423-.333h.177a5.286,5.286,0,0,1,.913.07,1.922,1.922,0,0,1,.669.229,1.086,1.086,0,0,1,.415.44,1.566,1.566,0,0,1,.142.711Z" transform="translate(-493.883 -475.508)"/>
        <path id="Caminho_2675" data-name="Caminho 2675" d="M664.029,477.05l-.784.149v6.366a4.609,4.609,0,0,0,.122,1.172,1.469,1.469,0,0,0,.406.716,1.556,1.556,0,0,0,.746.366,5.588,5.588,0,0,0,1.159.1h.893l.149-.692h-1.042a3.751,3.751,0,0,1-.833-.075,1,1,0,0,1-.5-.264,1.022,1.022,0,0,1-.249-.515,3.983,3.983,0,0,1-.07-.826v-3.913h2.709l.149-.679h-2.858Z" transform="translate(-516.882 -469.824)"/>
        <path id="Caminho_2676" data-name="Caminho 2676" d="M687.13,485.152a2.291,2.291,0,0,0-.913-.408,6.367,6.367,0,0,0-1.376-.127h-1.017c-.341,0-.639.012-.893.02l-.149.707c.3-.02.632-.03.995-.035h1.057a5.561,5.561,0,0,1,1.1.09,1.532,1.532,0,0,1,.677.284,1.015,1.015,0,0,1,.338.527,3.081,3.081,0,0,1,.094.821v.811a1.7,1.7,0,0,0-.813-.5,5.074,5.074,0,0,0-1.492-.177,3.064,3.064,0,0,0-1.99.517,2.059,2.059,0,0,0-.614,1.652v.189a1.911,1.911,0,0,0,.609,1.585,3.274,3.274,0,0,0,2,.5h2.221a1.02,1.02,0,0,0,.669-.157.826.826,0,0,0,.169-.614V486.95a3.158,3.158,0,0,0-.162-1.077A1.6,1.6,0,0,0,687.13,485.152Zm-.082,5.761h-2.3a4.311,4.311,0,0,1-.9-.08,1.33,1.33,0,0,1-.57-.249.973.973,0,0,1-.3-.433,1.921,1.921,0,0,1-.087-.624v-.174a1.417,1.417,0,0,1,.42-1.172,2.312,2.312,0,0,1,1.42-.333h.177a5.29,5.29,0,0,1,.915.07,1.96,1.96,0,0,1,.669.229,1.083,1.083,0,0,1,.413.44,1.566,1.566,0,0,1,.142.711Z" transform="translate(-531.07 -475.508)"/>
        <path id="Caminho_2677" data-name="Caminho 2677" d="M716.9,475.984a2.075,2.075,0,0,0-.868-.617,3.839,3.839,0,0,0-1.42-.224,3.072,3.072,0,0,0-2.2.706,3.214,3.214,0,0,0-.746,2.4v.881a5.815,5.815,0,0,0,.169,1.51,2.22,2.22,0,0,0,.535,1,2.085,2.085,0,0,0,.943.537,5.225,5.225,0,0,0,1.388.162h2.139a1.018,1.018,0,0,0,.677-.157.851.851,0,0,0,.162-.614v-9.3H716.9Zm0,5.647h-2.169a4.585,4.585,0,0,1-1.084-.107,1.388,1.388,0,0,1-.7-.393,1.625,1.625,0,0,1-.373-.774,5.781,5.781,0,0,1-.109-1.231v-.881a4.872,4.872,0,0,1,.122-1.184,1.623,1.623,0,0,1,.388-.746,1.4,1.4,0,0,1,.677-.378,3.962,3.962,0,0,1,1-.109,5.016,5.016,0,0,1,.888.075,1.715,1.715,0,0,1,.716.3,1.453,1.453,0,0,1,.475.642,3.054,3.054,0,0,1,.169,1.112Z" transform="translate(-553.258 -466.225)"/>
        <path id="Caminho_2678" data-name="Caminho 2678" d="M748.571,485.509a2.2,2.2,0,0,0-.55-.98,2.12,2.12,0,0,0-.955-.522,6.158,6.158,0,0,0-2.761,0,2.107,2.107,0,0,0-.955.527,2.261,2.261,0,0,0-.55.983,5.583,5.583,0,0,0-.174,1.517v1.03a5.56,5.56,0,0,0,.174,1.515,2.239,2.239,0,0,0,.55.983,2.062,2.062,0,0,0,.955.527,6.161,6.161,0,0,0,2.761,0,2.062,2.062,0,0,0,.955-.527,2.239,2.239,0,0,0,.55-.983,5.558,5.558,0,0,0,.174-1.515v-1.03a5.661,5.661,0,0,0-.174-1.525Zm-.629,2.555a5.218,5.218,0,0,1-.122,1.244,1.606,1.606,0,0,1-.393.759,1.391,1.391,0,0,1-.7.378,4.5,4.5,0,0,1-1.05.1,4.34,4.34,0,0,1-1.05-.107,1.468,1.468,0,0,1-.7-.386,1.639,1.639,0,0,1-.391-.759,5.144,5.144,0,0,1-.122-1.244v-1.03a5.227,5.227,0,0,1,.122-1.244,1.64,1.64,0,0,1,.391-.759,1.418,1.418,0,0,1,.7-.378,4.634,4.634,0,0,1,1.05-.1,4.355,4.355,0,0,1,1.042.109,1.443,1.443,0,0,1,.7.386,1.614,1.614,0,0,1,.393.764,5.164,5.164,0,0,1,.122,1.244Z" transform="translate(-576.516 -474.932)"/>
      </g>
    </g>
    <path id="Caminho_33245" data-name="Caminho 33245" d="M960,5535v75" transform="translate(-581.5 -5471)" fill="none" stroke="#151b1e" stroke-linecap="round" stroke-width="2"/>
  </g>
</svg>
